<svg width="710" height="400" xmlns="http://www.w3.org/2000/svg">
 <!-- Created with Method Draw - http://github.com/duopixel/Method-Draw/ -->

 <g>
  <title>background</title>
  <rect fill="none" id="canvas_background" height="402" width="712" y="-1" x="-1"/>
  <g display="none" overflow="visible" y="0" x="0" height="100%" width="100%" id="canvasGrid">
   <rect fill="url(#gridpattern)" stroke-width="0" y="0" x="0" height="100%" width="100%"/>
  </g>
 </g>
 <g>
  <title>Layer 1</title>
  <text stroke="#000" transform="matrix(8.497970132252771,0,0,8.562882846877859,-787.6927727760016,-1257.3906802781116) " xml:space="preserve" text-anchor="start" font-family="'Palatino Linotype', 'Book Antiqua', Palatino, serif" font-size="24" id="svg_1" y="177.938245" x="134.530065" stroke-width="0" fill="#000000">Буй</text>
  <metadata transform="matrix(0.021511240551401523,0,0,0.021511240551401523,0,0) ">Svg Vector Icons : http://www.onlinewebfonts.com/icon</metadata>
  <g stroke="null" id="svg_16">
   <g stroke="null" transform="matrix(0.339691857031379,0,0,0.29905701805139917,-4990.110338461005,-2421.6421344500577) " id="svg_13">
    <g stroke="null" id="svg_14" transform="translate(0,511) scale(0.10000000149011612,-0.10000000149011612) ">
     <path stroke="null" id="svg_15" d="m151328.112109,-77752.239551c-385.9,-44.9 -982.1,-191.9 -1178.1,-292c-122.5,-61.3 -175.6,-118.4 -232.8,-247c-36.7,-81.7 -42.9,-124.5 -32.7,-245l10.2,-145l-124.5,-69.4c-624.8,-341 -1182.1,-855.5 -1574.1,-1449.6c-71.5,-106.2 -159.3,-251.1 -196,-320.5l-69.4,-124.5l-145,10.2c-120.5,10.2 -163.3,4.1 -245,-32.7c-57.2,-24.5 -124.5,-65.3 -151.1,-89.8c-100,-91.9 -240.9,-496.1 -326.7,-939.2c-130.6,-675.8 -108.1,-1480.3 61.4,-2143.8c124.5,-494.1 212.3,-661.5 398.1,-749.3c79.6,-40.8 116.4,-44.9 251.1,-34.7l159.3,10.2l67.4,-126.6c373.6,-688.1 982.1,-1310.8 1670.1,-1708.9l224.6,-130.7l-10.2,-145c-10.2,-118.4 -4.1,-161.3 32.7,-243c81.7,-185.8 142.9,-226.6 506.3,-345.1c508.4,-163.3 994.3,-226.6 1606.8,-210.3c459.4,12.3 749.3,53.1 1171.9,169.5c557.4,153.1 696.2,281.8 671.7,626.8l-10.2,159.2l114.3,57.2c430.8,218.4 978,671.7 1331.2,1104.6c132.7,163.3 371.6,520.6 451.2,677.8l57.2,114.3l159.2,-10.2c249.1,-16.3 398.1,69.4 498.2,289.9c112.3,249.1 238.9,773.8 283.8,1184.2c26.5,236.8 26.5,804.4 0,1041.3c-63.3,573.7 -251.1,1225 -390,1351.6c-26.6,24.5 -93.9,65.3 -151.1,89.8c-83.7,36.7 -124.5,42.9 -247,32.7l-149.1,-10.2l-83.7,153.1c-359.3,667.8 -992.2,1310.9 -1659.8,1688.6l-214.4,120.5l10.2,155.2c16.3,247 -71.5,394 -289.9,494.1c-249.1,112.3 -773.8,238.9 -1184.2,283.8c-216.4,24.4 -853.4,22.4 -1071.9,-2.1zm1306.7,-524.7c251.1,-44.9 677.8,-161.3 724.8,-196c30.6,-22.5 12.2,-114.3 -200.1,-967.8c-126.6,-518.6 -236.8,-947.4 -240.9,-953.5c-6.1,-4.1 -81.7,18.4 -167.4,51c-322.6,126.6 -477.8,153.1 -882,151.1c-328.7,0 -387.9,-6.1 -563.5,-53.1c-108.2,-30.6 -255.2,-77.6 -326.7,-106.2c-71.5,-28.6 -132.7,-47 -136.8,-42.9c-10.2,8.2 -473.7,1882.4 -473.7,1909c0,36.7 596.2,187.8 920.8,232.7c302.2,43.1 1051.5,28.8 1345.5,-24.3zm-2147.9,-2466.4c163.3,-167.4 345.1,-191.9 628.8,-81.7c330.8,126.6 416.5,142.9 763.6,142.9s432.8,-16.3 763.6,-142.9c283.8,-110.3 477.7,-83.7 637,85.8l69.4,71.5l93.9,-75.5c104.1,-85.7 396.1,-394 396.1,-418.5c0,-8.2 -26.5,-34.7 -59.2,-57.2c-32.7,-24.5 -83.7,-89.8 -112.3,-149.1c-77.6,-153.1 -71.5,-275.6 20.4,-512.5c202.1,-514.5 198,-1045.3 -12.2,-1523.1c-108.2,-249.1 -71.5,-494.1 96,-632.9l69.4,-57.2l-100,-122.5c-102.1,-120.5 -310.3,-318.5 -375.7,-355.3c-26.5,-14.3 -42.9,-4.1 -75.5,40.8c-24.5,32.7 -89.8,83.7 -149,112.3c-149,75.5 -271.5,71.5 -498.2,-16.3c-330.8,-128.6 -416.5,-142.9 -763.6,-142.9c-349.1,0 -500.2,30.6 -773.8,151.1c-251.1,108.2 -469.6,75.5 -628.8,-98l-65.3,-69.4l-93.9,77.6c-106.2,85.8 -398.1,394 -398.1,418.5c0,8.2 26.5,34.7 59.2,57.2c32.7,24.5 83.7,89.8 112.3,149.1c73.5,147 71.5,277.7 -8.2,475.7c-110.2,277.7 -145,432.9 -157.2,704.4c-12.2,306.2 28.6,545.1 145,828.9c116.4,287.9 91.9,494.1 -81.7,653.3l-75.5,67.4l85.7,102.1c85.8,102.1 383.8,390 406.3,390c6,-0.1 42.7,-32.7 81.5,-73.6zm-1794.6,-608.4c518.6,-126.6 947.3,-234.8 951.4,-240.9c4.1,-4.1 -18.4,-79.6 -51,-165.4c-126.6,-322.6 -153.1,-477.8 -151.1,-882c0,-328.7 6.1,-387.9 53.1,-563.5c30.6,-108.2 77.6,-255.2 106.2,-326.7c30.6,-73.5 42.9,-134.7 32.7,-140.9c-32.7,-20.4 -1898.8,-475.7 -1909,-465.5c-24.5,22.5 -159.2,543.1 -198,751.3c-53.2,300.2 -71.6,888.2 -38.9,1208.8c28.6,275.6 106.2,647.2 175.6,855.5c67.4,198 69.4,202.1 77.6,202.1c6.1,-0.1 432.8,-104.2 951.4,-232.8zm7399.1,49c220.5,-681.9 259.3,-1508.8 106.1,-2235.7c-59.2,-287.9 -149,-581.9 -179.7,-594.1c-22.5,-8.2 -1884.5,445.1 -1902.9,465.5c-4.1,4.1 18.4,79.6 51,165.4c124.5,318.5 151.1,477.8 151.1,882c0,330.8 -6.1,387.9 -53.1,563.5c-30.6,108.2 -77.6,255.2 -106.2,326.7c-28.6,71.5 -47,132.7 -42.9,136.8c14.3,16.3 1855.9,469.6 1888.6,465.5c20.6,0 51.2,-65.4 88,-175.6zm-5051.2,-3628.1c294,-112.3 453.3,-136.8 849.3,-136.8c330.8,0 387.9,6.1 563.5,53.1c108.2,30.6 255.2,77.6 326.7,106.2c73.5,30.6 134.8,42.9 140.9,32.7c20.4,-32.7 475.7,-1898.8 465.5,-1909c-4.1,-4.1 -122.5,-40.8 -261.3,-81.7c-387.9,-112.3 -671.7,-155.2 -1102.5,-167.4c-404.3,-12.2 -659.5,8.2 -1020.8,77.6c-210.3,42.9 -588,151.1 -618.6,179.7c-10.2,10.2 383.8,1682.3 447.1,1886.5c8.2,24.5 22.5,32.7 44.9,24.5c20.4,-8.2 93.9,-36.8 165.3,-65.4z"/>
    </g>
   </g>
  </g>
 </g>
</svg>